PathFileType	4	(X/Y/Z)	C:/Users/opensim2020/Desktop/walking_exp_matlab/subject02_walking09_straight_03.trc																																																																																																																												
DataRate	CameraRate	NumFrames	NumMarkers	Units	OrigDataRate	OrigDataStartFrame	OrigNumFrames																																																																																																																								
100	100	6	42	mm	100	2341	262																																																																																																																								
Frame#	Time	LFHD			RFHD			LBHD			RBHD			C7			T10			CLAV			STRN			RBAK			LSHO			LUPA			LELB			LFRM			LWRA			LWRB			LFIN			RSHO			RUPA			RELB			RFRM			RWRA			RWRB			RFIN			LASI			RASI			LPSI			RPSI			LTHI			LKNE			LTIB			LANK			LHEE			LTOE			RTHI			RKNE			RTIB			RANK			RHEE			RTOE			*39			*40			*41		
		X1	Y1	Z1	X2	Y2	Z2	X3	Y3	Z3	X4	Y4	Z4	X5	Y5	Z5	X6	Y6	Z6	X7	Y7	Z7	X8	Y8	Z8	X9	Y9	Z9	X10	Y10	Z10	X11	Y11	Z11	X12	Y12	Z12	X13	Y13	Z13	X14	Y14	Z14	X15	Y15	Z15	X16	Y16	Z16	X17	Y17	Z17	X18	Y18	Z18	X19	Y19	Z19	X20	Y20	Z20	X21	Y21	Z21	X22	Y22	Z22	X23	Y23	Z23	X24	Y24	Z24	X25	Y25	Z25	X26	Y26	Z26	X27	Y27	Z27	X28	Y28	Z28	X29	Y29	Z29	X30	Y30	Z30	X31	Y31	Z31	X32	Y32	Z32	X33	Y33	Z33	X34	Y34	Z34	X35	Y35	Z35	X36	Y36	Z36	X37	Y37	Z37	X38	Y38	Z38	X39	Y39	Z39	X40	Y40	Z40	X41	Y41	Z41	X42	Y42	Z42
																																																																																																																															
164	1.63	206.2747	1745.0802	-1021.21259	190.65352	1723.3656	-878.22467	109.59957	1632.06006	-1048.39551	83.65129	1605.07361	-909.74707	66.1637	1505.86975	-970.8551	17.71189	1231.45703	-962.45789	206.09837	1441.59509	-988.77875	262.01682	1269.63123	-988.58783	14.95804	1331.78589	-905.97412	132.73883	1485.83899	-1155.36731	137.52452	1284.99988	-1239.1897	161.24048	1143.83276	-1254.05518	215.92773	1021.75684	-1257.52881	310.73434	929.69116	-1214.90149	269.19913	911.26233	-1249.22351	313.19681	862.19916	-1249.7926	156.86517	1467.49377	-788.48669	124.58057	1276.73987	-707.95953	129.18187	1129.43848	-696.48883	154.30815	1011.49158	-680.03986	200.87759	884.74524	-701.53241	153.33807	881.37665	-669.83441	189.34607	817.98889	-668.79144	234.98874	963.55664	-1121.87341	273.42786	968.39569	-869.13879	40.25382	1012.07983	-1012.01031	49.03994	1018.14972	-896.01935	110.03768	661.13586	-1158.35693	45.74025	475.50861	-1130.27612	-95.5047	342.70016	-1111.62903	-198.61293	142.28624	-1074.05518	-230.52029	135.58176	-1016.78845	-84.26323	32.45013	-1096.71716	268.84601	672.18152	-785.1618	318.84634	471.18109	-832.2486	304.10657	282.5672	-827.79132	306.81079	91.20779	-866.58557	276.67505	38.6707	-925.13171	461.01321	40.8149	-850.20081	76.65816	1770.27136	-948.68274	2845.3335	1034.13037	-3360.36304	NaN	NaN	NaN
165	1.64	214.57875	1746.31287	-1018.85596	199.20541	1724.2655	-876.32556	117.75899	1633.56104	-1046.24683	91.8027	1606.36597	-907.67755	74.06691	1506.69409	-969.19421	26.96623	1232.05945	-960.55988	214.37505	1443.15979	-987.13495	270.24994	1271.2489	-986.95349	23.9154	1332.30969	-904.3078	140.66624	1487.57275	-1153.54932	144.39459	1286.38416	-1236.89893	166.68735	1145.31287	-1251.62903	218.30971	1021.92072	-1255.80127	311.10284	927.25854	-1214.72998	268.95233	910.08545	-1248.54846	311.44818	859.87689	-1249.96277	164.77356	1469.16003	-786.95868	134.46376	1277.48853	-706.4408	140.49167	1130.69348	-695.22894	165.49823	1012.7832	-678.70215	211.39023	885.76855	-700.32764	164.30161	882.86188	-668.1618	199.58304	819.07544	-667.52136	245.31117	964.5683	-1118.46008	283.33746	970.72974	-866.34039	50.0695	1012.86896	-1010.52631	58.56919	1018.71191	-894.36041	122.5381	661.10699	-1158.12268	61.12645	475.66269	-1132.03455	-82.41641	346.60556	-1112.83008	-190.66066	149.42241	-1075.03491	-221.7039	144.41209	-1017.31598	-83.83923	32.43493	-1096.77319	278.72305	672.81213	-783.67737	323.35895	470.59625	-831.16699	305.6008	282.29163	-828.01935	307.30405	91.12936	-867.27386	276.97449	38.52412	-925.26746	461.68826	40.54219	-850.83112	84.94367	1771.54529	-946.22766	2846.1416	1034.06458	-3357.10938	NaN	NaN	NaN
166	1.65	222.90347	1747.72754	-1016.60712	207.42699	1725.34668	-874.08038	125.8618	1635.14368	-1044.19568	99.89185	1607.70166	-905.65253	81.94227	1507.49695	-967.5722	36.2735	1232.67859	-958.57776	222.56026	1444.78394	-985.50769	279.129	1273.09424	-985.51575	32.69657	1332.9292	-902.69977	148.34787	1489.14172	-1151.76184	151.37357	1287.96216	-1234.65564	171.91052	1146.68884	-1248.83386	220.47694	1022.30658	-1254.2887	311.10443	924.87579	-1214.50171	268.16367	909.19751	-1248.21143	309.33377	857.91748	-1250.39282	172.61923	1470.70874	-785.4007	144.89906	1278.92786	-704.64771	151.68167	1132.0426	-693.96991	176.69817	1014.29962	-677.46985	222.16202	887.14276	-699.1142	175.49298	884.36475	-666.46826	210.42023	820.30176	-666.0813	255.22903	965.6665	-1114.88708	292.77594	972.86145	-863.47943	59.46327	1013.79846	-1008.82483	68.04195	1019.31659	-892.60876	135.60535	660.83258	-1157.6283	77.12737	475.65216	-1133.80347	-68.36886	350.29105	-1113.90222	-181.43398	156.45746	-1076.01709	-211.09288	153.13602	-1017.65234	-82.8841	32.87266	-1096.56311	287.50659	673.97388	-782.12592	327.27869	469.9707	-830.44165	307.17725	282.07785	-827.85779	307.63419	91.17494	-867.43799	277.02014	38.58489	-925.32013	462.03003	40.29721	-851.091	93.24956	1773.27795	-944.00525	2845.29492	1034.0835	-3360.36621	NaN	NaN	NaN
167	1.66	231.17706	1749.0564	-1014.27203	215.59706	1726.38367	-871.73956	133.92751	1636.78027	-1042.17456	107.89607	1609.07288	-903.81818	90.00261	1508.67163	-965.70459	45.27161	1233.50134	-956.51941	230.67436	1446.47852	-983.96674	288.29147	1275.02258	-984.02338	41.34585	1333.68616	-901.36346	155.96408	1490.87146	-1150.047	158.43152	1289.56653	-1232.93359	177.12639	1148.24451	-1246.38611	222.51122	1022.88733	-1252.88245	310.90897	922.63354	-1214.36035	267.25247	908.44696	-1247.72229	307.00821	856.15424	-1250.76416	180.75739	1472.36108	-783.89838	154.8475	1280.15332	-703.02753	162.72981	1133.41504	-692.72937	188.15726	1015.7785	-676.17041	233.20718	888.42017	-697.896	186.5753	885.92847	-664.95044	221.12338	821.32635	-664.76874	265.42599	966.87256	-1111.3949	301.98834	974.87555	-860.80109	68.32064	1015.10217	-1007.00513	77.33807	1020.24945	-890.80042	148.58136	660.46991	-1157.65979	93.60542	475.48495	-1135.57495	-53.43994	353.9144	-1114.77759	-170.65764	163.25912	-1077.10547	-199.50453	161.76701	-1018.2511	-80.89856	33.49148	-1096.22131	295.33234	675.23071	-780.69275	331.30496	470.09293	-829.57977	309.21487	281.95963	-827.24683	307.9993	91.21732	-867.43909	276.70798	38.725	-925.34393	462.33218	40.12672	-851.3515	101.68819	1774.59631	-941.58545	2845.20703	1034.04846	-3360.30396	NaN	NaN	NaN
168	1.67	239.42497	1750.42383	-1012.12347	223.9054	1727.59326	-869.51379	141.98602	1638.43787	-1040.32727	115.9135	1610.46582	-901.97974	97.93925	1509.77759	-963.9162	54.18125	1234.35962	-954.71069	238.80373	1448.09912	-982.51794	296.58682	1276.73059	-982.77509	50.15804	1334.42395	-899.38593	163.44992	1492.53308	-1148.37939	165.40508	1291.17053	-1231.1864	182.11452	1149.88647	-1244.26526	224.37885	1023.44592	-1251.4303	310.98709	920.67181	-1214.32788	266.21603	907.87134	-1247.33008	304.40903	854.34387	-1250.98755	188.85533	1473.85522	-782.43225	165.11305	1281.36682	-701.42114	173.85303	1134.80835	-691.53455	199.39471	1017.39087	-674.94757	244.52782	889.91577	-696.64532	197.73941	887.4281	-663.47253	232.92325	823.10529	-663.09058	274.09058	967.94421	-1108.19617	310.95093	976.57813	-858.53455	77.06458	1016.43005	-1005.1181	86.47089	1021.57239	-888.93176	161.82118	660.04266	-1157.60864	110.40216	475.35837	-1137.27673	-37.85448	357.23483	-1115.58643	-158.52249	169.6664	-1078.27771	-186.80843	169.79967	-1018.91528	-77.48586	34.72816	-1096.00806	301.67194	675.94122	-779.81543	335.19858	470.36285	-828.63593	311.52264	282.08252	-826.17517	308.3172	91.22979	-867.20667	276.5448	38.92327	-925.05273	462.38348	40.08721	-851.29138	110.10898	1776.27063	-939.38928	2845.91162	1034.16199	-3357.0105	NaN	NaN	NaN
169	1.68	247.64233	1751.75574	-1010.11713	232.03954	1728.49646	-867.65399	149.99754	1640.04309	-1038.58838	123.78243	1611.64392	-900.1239	105.93721	1510.85229	-962.19031	62.90997	1235.3075	-952.91815	246.93723	1449.63306	-981.17755	305.6915	1278.52759	-981.51324	58.77163	1335.1947	-897.68671	170.74023	1494.02197	-1146.56396	172.28305	1292.70264	-1229.51074	187.33905	1151.25867	-1241.7229	226.25586	1024.15662	-1250.33276	310.35721	918.69012	-1214.22375	265.16971	907.45203	-1247.01465	301.51535	852.68976	-1251.08313	197.19829	1475.18958	-781.02094	174.30692	1282.4436	-700.18921	184.86133	1136.07532	-690.34296	210.74959	1018.85394	-673.66321	256.07626	891.33875	-695.44672	209.60799	888.92163	-661.86469	244.11348	824.41846	-661.61359	282.69757	969.16644	-1105.50769	319.54419	977.93762	-856.5636	85.61964	1017.79749	-1003.23859	95.47527	1023.198	-886.82135	175.07196	659.79797	-1157.72119	127.37495	475.34302	-1138.91895	-21.56795	360.04788	-1116.71362	-145.69946	175.91925	-1079.20386	-173.59206	177.41927	-1019.17267	-71.50536	37.45866	-1096.72192	307.19	676.26147	-779.15613	338.97433	470.45511	-827.79376	313.97064	282.32364	-825.04321	308.63315	91.29545	-866.98547	276.52887	38.76765	-925.03638	462.43518	40.00745	-851.39606	118.26006	1777.80896	-937.43677	2845.96729	1034.21106	-3357.1604	NaN	NaN	NaN
